<?xml version="1.0" encoding="UTF-8" standalone="no"?>
<!-- Created with Inkscape (http://www.inkscape.org/) -->

<svg
   version="1.1"
   id="svg1"
   width="2080"
   height="2048"
   viewBox="0 0 2080 2048"
   sodipodi:docname="otelcol-integrator.svg"
   inkscape:version="1.4.2 (ebf0e940d0, 2025-05-08)"
   xmlns:inkscape="http://www.inkscape.org/namespaces/inkscape"
   xmlns:sodipodi="http://sodipodi.sourceforge.net/DTD/sodipodi-0.dtd"
   xmlns="http://www.w3.org/2000/svg"
   xmlns:svg="http://www.w3.org/2000/svg">
  <defs
     id="defs1" />
  <sodipodi:namedview
     id="namedview1"
     pagecolor="#ffffff"
     bordercolor="#000000"
     borderopacity="0.25"
     inkscape:showpageshadow="2"
     inkscape:pageopacity="0.0"
     inkscape:pagecheckerboard="0"
     inkscape:deskcolor="#d1d1d1"
     inkscape:zoom="0.6587694"
     inkscape:cx="863.73167"
     inkscape:cy="718.76441"
     inkscape:window-width="2269"
     inkscape:window-height="2057"
     inkscape:window-x="0"
     inkscape:window-y="0"
     inkscape:window-maximized="0"
     inkscape:current-layer="g1" />
  <g
     inkscape:groupmode="layer"
     inkscape:label="Image"
     id="g1">
    <path
       style="fill:#e95420;stroke-width:1.4108;fill-opacity:1"
       d="m 288.74783,2045.2565 c -16.20875,-6.0255 -20.06207,-9.4539 -96.26683,-85.6514 -41.35257,-41.3487 -98.18724,-98.1307 -126.299261,-126.1822 -52.156522,-52.0442 -60.1751267,-61.4043 -64.1453392,-74.8773 -4.298138,-14.5859 -1.55886203,-36.8193 6.019698,-48.8591 5.5766882,-8.8594 18.1077192,-20.3332 26.9939762,-24.7165 8.616668,-4.2503 10.092375,-4.5212 24.624871,-4.5212 23.163541,0 27.306008,2.331 57.417115,32.3096 21.84861,21.7525 23.90013,23.4342 26.41884,21.6562 1.50191,-1.0601 31.00019,-29.9195 65.55172,-64.1322 89.82352,-88.9423 93.94027,-92.8061 104.42723,-98.0089 16.8555,-8.3623 40.19204,-8.3606 56.81191,0 3.40661,1.7146 9.5903,6.6789 13.74154,11.0318 4.15123,4.3529 24.46089,24.8034 45.13258,45.4455 40.78279,40.7245 44.83113,46.0897 48.58854,64.3932 3.10205,15.111 -0.85959,34.8619 -9.78719,48.7941 -2.28641,3.5682 -38.64721,41.2087 -80.80176,83.6455 -42.15456,42.4409 -76.64464,77.8291 -76.64464,78.6443 0,0.8154 9.84368,11.3442 21.87486,23.3974 12.45003,12.4728 23.63844,25.0165 25.96809,29.1139 15.92435,28.0078 7.8185,63.5499 -18.65249,81.7864 -13.36818,9.2097 -36.19644,12.2241 -50.97346,6.7309 z M 1648.0383,1608.9568 c -4.8192,-3.8638 -9.4469,-12.7303 -9.4469,-18.1004 0,-2.5099 2.9479,-8.5105 7.845,-15.9686 12.1362,-18.4831 13.938,-23.054 13.938,-35.3579 v -10.622 l -12.7943,-23.3684 c -10.8629,-19.8404 -15.6721,-27.7684 -23.4994,-38.7381 -0.701,-0.9825 2.4127,-9.1905 7.8697,-20.7453 4.9664,-10.5158 10.5438,-23.1014 12.3945,-27.9682 5.9471,-15.6401 4.6342,-14.9631 31.3742,-16.1776 25.6308,-1.1642 37.3532,-3.7431 51.6465,-11.3624 9.7966,-5.2224 21.7025,-16.8733 25.2108,-24.6712 7.3611,-16.3612 11.2255,-46.7877 11.5686,-91.0841 0.2064,-26.6505 -0.045,-30.005 -2.9397,-39.2838 -3.7445,-12.0006 -11.6306,-22.7976 -20.4603,-28.0123 -8.0651,-4.7632 -18.5863,-8.3516 -42.426,-14.4701 -10.8212,-2.7773 -20.6455,-5.9086 -21.8318,-6.9584 -1.1862,-1.0499 -2.8933,-4.0055 -3.7935,-6.5681 -2.9806,-8.4851 -13.022,-50.4903 -13.022,-54.4738 0,-3.0577 2.5759,-6.3997 11.7839,-15.2886 13.2885,-12.8279 24.9223,-26.3027 39.9193,-46.2355 12.2089,-16.2275 16.4554,-19.0224 27.1565,-17.8738 13.0857,1.4046 50.4501,20.6883 63.5932,32.8203 4.7099,4.3477 5.1094,5.3364 5.1094,12.6453 0,5.3731 -1.5855,12.5731 -4.9187,22.3365 -3.1068,9.1001 -4.9188,17.0653 -4.9186,21.6218 10e-5,6.8678 0.465,7.7642 9.6824,18.6721 9.0976,10.766 21.7329,28.7757 27.1567,38.708 1.3244,2.4253 3.4908,4.8284 4.8142,5.3401 1.3234,0.5118 13.3551,0.1175 26.737,-0.8767 l 24.3308,-1.8073 6.0864,3.5945 c 6.5389,3.8618 9.2908,8.5813 12.9367,22.1864 11.4277,42.6428 12.8884,53.11 8.3793,60.0452 -3.5561,5.4695 -11.8038,10.8128 -30.2609,19.6046 -8.8449,4.2131 -16.9175,8.6895 -17.9394,9.9477 -1.1363,1.3993 -2.3388,9.1283 -3.0965,19.9044 -0.6813,9.6893 -2.217,23.7422 -3.4124,31.2289 -1.1954,7.4867 -2.1735,16.0432 -2.1735,19.0147 0,6.2782 1.6805,8.1111 22.7617,24.8268 11.1336,8.8282 13.8963,11.7829 15.0997,16.15 2.0029,7.2683 1.9194,8.1256 -1.455,14.9612 -5.1475,10.4276 -28.2313,48.8279 -32.4602,53.9981 -7.5927,9.2828 -16.5927,9.1865 -41.1881,-0.4403 -23.5434,-9.2153 -24.0535,-9.1757 -36.5436,2.8215 -14.4735,13.9025 -32.4702,27.1616 -46.6198,34.3476 -4.0008,2.032 -7.6561,4.9073 -8.1231,6.3897 -0.4669,1.4824 0.1194,12.4207 1.3017,24.3073 2.4168,24.2857 1.5992,30.9816 -4.2549,34.8472 -1.9164,1.2653 -11.852,4.71 -22.0793,7.6549 -10.2273,2.945 -21.7571,6.3844 -25.6219,7.643 -3.8647,1.2588 -12.086,2.6659 -18.2696,3.1269 -10.1822,0.7591 -11.611,0.5428 -15.1468,-2.2918 z m -832.28231,-53.8479 c 1.39902,-1.5579 2.85987,-2.8325 3.24634,-2.8325 0.38647,0 -0.44197,1.2746 -1.84099,2.8325 -1.39901,1.5579 -2.85987,2.8326 -3.24634,2.8326 -0.38647,0 0.44197,-1.2747 1.84099,-2.8326 z m 426.52531,-58.2942 c -19.2599,-1.314 -36.952,-5.1424 -60.9641,-13.1917 -23.0839,-7.7384 -26.1703,-9.245 -47.1658,-23.0255 -32.5469,-21.362 -52.4098,-41.195 -74.8457,-74.7328 -8.5606,-12.7966 -21.0037,-42.9685 -26.3368,-63.861 -5.5091,-21.5824 -7.6268,-49.6589 -5.652,-74.9335 4.504,-57.6458 29.6646,-110.646 72.0639,-151.8011 45.0305,-43.7089 106.459,-67.588 167.4942,-65.1097 26.8305,1.0894 42.7322,3.7672 63.8302,10.749 41.1904,13.6308 80.7888,40.6581 106.6149,72.7685 25.1089,31.2187 37.9423,56.4131 46.5608,91.4076 10.4366,42.3769 10.827,74.8212 1.3714,113.9723 -11.4538,47.4247 -28.8857,78.4893 -62.8243,111.9566 -20.9741,20.6828 -40.7413,34.287 -66.2738,45.6111 -37.0308,16.4239 -73.7226,22.9294 -113.8729,20.1902 z m 34.4312,-120.7112 c 21.2065,-3.2722 36.8633,-10.288 53.8797,-24.1435 16.4986,-13.4337 29.3592,-32.5425 36.755,-54.6122 4.3465,-12.9702 5.4062,-37.8876 2.2741,-53.4657 -6.6403,-33.0256 -27.6434,-61.8092 -57.3302,-78.5676 -17.7118,-9.9984 -30.1877,-13.0487 -52.4429,-12.8222 -30.6393,0.312 -51.3491,7.7995 -72.253,26.1228 -14.0688,12.3322 -22.7188,23.7316 -30.4505,40.1297 -15.3771,32.6129 -13.4303,73.772 4.8329,102.178 16.6317,25.8684 40.4426,44.4898 66.7392,52.1937 17.701,5.1859 29.134,5.8974 47.9957,2.987 z M 465.11989,1250.0761 c 0,-0.294 1.10672,-1.4093 2.45937,-2.4784 2.22898,-1.7616 2.27869,-1.7116 0.53061,0.5347 -1.83591,2.3591 -2.98998,3.1095 -2.98998,1.9437 z m -2.58678,-94.0012 c -23.28315,-23.4866 -51.25123,-67.8813 -51.07067,-81.0662 0.12957,-9.4665 6.04318,-17.4897 32.02256,-43.4464 14.32296,-14.3105 24.70953,-25.8245 25.24871,-27.9895 1.03504,-4.15594 0.72297,-6.30867 -3.50495,-24.17756 -1.65874,-7.01053 -5.19505,-23.89955 -7.85845,-37.53115 -6.69266,-34.25374 -7.43212,-35.98508 -16.89266,-39.55222 -7.43108,-2.80191 -25.93846,-8.89793 -49.84158,-16.41699 -14.68982,-4.62088 -20.08158,-8.57342 -23.30755,-17.08608 -2.27411,-6.00096 -2.33276,-8.30584 -0.71222,-27.9957 2.45673,-29.84976 9.22204,-76.90528 12.09583,-84.13155 2.83548,-7.12996 8.65014,-12.45059 15.85201,-14.5052 2.8637,-0.81697 18.94612,-2.97354 35.7387,-4.79237 18.21489,-1.97289 31.41112,-4.04229 32.71127,-5.1297 1.19862,-1.0025 9.15442,-15.82069 17.67956,-32.92931 8.52512,-17.10862 17.13357,-33.71408 19.12988,-36.90098 5.7157,-9.12459 10.23899,-19.74073 10.25397,-24.06604 0.0179,-5.15733 -3.05179,-11.05836 -11.1985,-21.52778 -10.16421,-13.06213 -24.77038,-36.19461 -26.72711,-42.329 -2.10354,-6.59466 -1.10105,-17.27535 2.23436,-23.80547 1.31447,-2.57346 17.31663,-19.78533 35.56037,-38.24861 34.30614,-34.71893 38.69594,-38.13611 51.49978,-40.08924 7.70029,-1.17463 20.84334,5.44571 44.58281,22.457 10.22915,7.33003 20.74905,14.42659 23.37756,15.7701 l 4.77909,2.44277 28.24675,-14.24941 c 15.53571,-7.83717 37.10049,-17.84686 47.92173,-22.24372 10.82123,-4.39689 21.69008,-9.2307 24.15298,-10.74184 5.52068,-3.38725 6.81569,-7.37982 8.89141,-27.41257 3.36196,-32.44616 6.47515,-47.86317 11.24456,-55.68494 5.1194,-8.39573 11.98028,-10.2581 48.42394,-13.14456 17.80004,-1.40982 40.60714,-3.3125 50.68244,-4.22816 17.54219,-1.59426 18.56234,-1.5396 24.0656,1.28976 11.38876,5.85524 15.65844,14.9749 24.53414,52.40265 2.32173,9.79048 5.24036,19.53936 6.48584,21.66418 2.92841,4.99589 9.20998,7.55995 25.67322,10.4795 16.6086,2.94533 57.16309,13.64117 73.04491,19.26484 6.5515,2.31988 13.1918,3.87844 14.7562,3.46348 3.0073,-0.79773 3.427,-1.17428 32.9594,-29.58125 20.5855,-19.80095 24.6149,-22.57693 32.6097,-22.46574 5.9733,0.0831 23.7217,4.73224 21.2435,5.56474 -0.8785,0.29507 -1.2945,1.33132 -0.9246,2.3028 0.3749,0.98445 -39.5045,41.96491 -90.0925,92.5799 l -90.76511,90.81358 -17.14473,-3.48828 c -31.07202,-6.32195 -69.19638,-6.0254 -100.11951,0.77878 -51.07754,11.23883 -93.79136,34.90001 -132.57392,73.4389 -17.08188,16.97454 -22.44203,23.86468 -36.01999,46.3014 -13.07744,21.60963 -15.59727,26.9418 -23.42499,49.56944 -11.5112,33.2754 -16.8883,72.2758 -13.9271,101.014 4.07201,39.51859 15.7905,74.84719 34.73782,104.72669 2.60283,4.10461 4.73242,7.76806 4.73242,8.14102 0,0.65077 -124.6512,126.17909 -154.09133,155.17559 -9.11516,8.9779 -15.34931,14.0437 -17.28252,14.0437 -1.73471,0 -5.8674,-2.8682 -9.69303,-6.7273 z m 131.87945,-36.4689 c 1.81537,-1.9474 3.61686,-3.5407 4.00334,-3.5407 0.38647,0 -0.78262,1.5933 -2.59798,3.5407 -1.81537,1.9473 -3.61687,3.5406 -4.00334,3.5406 -0.38647,0 0.78261,-1.5933 2.59798,-3.5406 z M 727.9213,985.23373 c 0,-0.29409 1.10671,-1.4094 2.45937,-2.47847 2.22897,-1.76166 2.27868,-1.71157 0.5306,0.53472 -1.83591,2.35915 -2.98997,3.1094 -2.98997,1.94375 z m 145.32073,-21.06339 -2.67719,-3.18661 3.16205,2.69798 c 2.97154,2.53544 3.80182,3.67524 2.67718,3.67524 -0.26668,0 -1.6896,-1.43398 -3.16204,-3.18661 z M 1871.1777,773.92048 c -12.6659,-3.08513 -16.4611,-4.34643 -23.5795,-7.83667 -4.4664,-2.18987 -9.4555,-4.92385 -11.0871,-6.07552 -5.243,-3.70087 -45.1784,-43.6336 -281.8416,-281.82314 -247.5319,-249.12852 -237.1788,-238.13751 -242.943,-257.91052 -3.5271,-12.09917 -3.3289,-34.17734 0.403,-44.90366 6.1022,-17.53861 10.0497,-22.15649 74.9033,-87.620857 34.3961,-34.720009 65.9424,-66.140224 70.1029,-69.822696 26.968,-23.8690176 66.435,-23.9070445 94.3324,-0.09092 4.2464,3.625183 81.1059,80.29223 170.7987,170.371223 89.693,90.07898 203.6926,204.44548 253.3325,254.14779 62.7032,62.7819 91.5408,92.61295 94.468,97.72261 6.8506,11.95806 9.9322,24.00534 9.9328,38.83047 7e-4,15.31739 -1.4551,21.57038 -8.1328,34.93354 -5.439,10.8842 -11.0779,17.00706 -66.7343,72.46231 -77.0106,76.73223 -78.7662,78.26419 -96.403,84.12649 -9.137,3.03708 -31.05,5.07334 -37.5523,3.48952 z m -846.0238,-183.2913 c 1.399,-1.5579 2.8599,-2.83254 3.2464,-2.83254 0.3864,0 -0.442,1.27464 -1.841,2.83254 -1.3991,1.5579 -2.8599,2.83254 -3.2464,2.83254 -0.3865,0 0.442,-1.27464 1.841,-2.83254 z m 77.9972,-78.60297 c 1.8153,-1.94737 3.6168,-3.54068 4.0033,-3.54068 0.3865,0 -0.7826,1.59331 -2.5979,3.54068 -1.8153,1.94737 -3.6169,3.54067 -4.0033,3.54067 -0.3865,0 0.7826,-1.5933 2.5979,-3.54067 z"
       id="path3" />
    <path
       style="fill:#772953;stroke-width:1.4108;fill-opacity:1"
       d="m 1226.6012,1729.3459 c -6.816,-2.0751 -12.3549,-6.2279 -14.564,-10.9193 -1.2002,-2.549 -5.9423,-19.7401 -10.5378,-38.2023 -4.5955,-18.4622 -9.1573,-34.0805 -10.1372,-34.7074 -0.98,-0.6268 -2.764,-1.1494 -3.9646,-1.1613 -1.2004,-0.014 -11.9514,-2.5428 -23.891,-5.6242 -20.9971,-5.4189 -54.1326,-16.7639 -74.6045,-25.5431 -15.8745,-6.8077 -12.0937,-8.7935 -50.47,26.5083 -11.9199,10.9652 -17.6628,15.2116 -23.6456,17.4846 -14.0917,5.3536 -24.93089,2.1203 -42.177,-12.5816 -26.69499,-22.7568 -37.24431,-31.5422 -48.12806,-40.0803 -12.68711,-9.953 -20.22806,-19.6459 -21.7959,-28.0158 -1.22032,-6.5147 2.39077,-20.7517 7.21811,-28.4582 3.89626,-6.22 17.83819,-21.1179 58.66533,-62.6877 14.34433,-14.6053 26.72538,-26.555 27.51343,-26.555 0.78807,0 1.6458,0.6438 1.9061,1.4308 1.38883,4.1988 35.25409,36.0442 51.05639,48.0111 29.7461,22.5264 53.1981,35.7004 87.3708,49.0797 17.8403,6.9849 26.802,9.5036 48.0449,13.5035 51.0083,9.6043 94.283,9.2576 140.7366,-1.1275 41.0559,-9.1786 85.1624,-30.5144 123.6516,-59.8149 40.7317,-31.0075 81.6976,-82.7718 99.1108,-125.2356 21.2879,-51.9131 28.6703,-89.7646 26.9553,-138.2081 -1.6686,-47.131 -12.1636,-91.9169 -32.0085,-136.5911 -3.7983,-8.5505 -6.9059,-16.8001 -6.9059,-18.3324 0,-1.7632 17.2003,-20.2558 46.8531,-50.3731 25.7692,-26.1729 49.8873,-50.933 53.5958,-55.02248 3.7084,-4.08948 7.4467,-7.41683 8.307,-7.39413 3.1177,0.0823 23.7039,32.19231 31.1562,48.59641 1.9474,4.287 3.9088,10.9252 4.3584,14.7515 1.4163,12.0507 -2.2845,17.8483 -26.8518,42.0659 -24.3426,23.996 -29.9088,31.5148 -27.6733,37.3814 5.0612,13.2828 11.2728,38.3218 16.3344,65.8449 2.0284,11.0291 4.2785,19.2315 5.7141,20.8302 1.3911,1.5491 6.7932,3.593 13.0955,4.9543 19.7003,4.2554 55.656,13.6898 59.2121,15.5365 13.7497,7.1402 16.1103,20.6123 11.8744,67.768 -5.1099,56.8849 -7.3662,65.0269 -19.2411,69.4315 -7.1374,2.6473 -27.9436,5.6119 -61.4957,8.7622 -13.5265,1.2701 -24.6428,2.4007 -24.7029,2.5126 -0.06,0.1119 -2.515,7.5325 -5.4555,16.4904 -4.9842,15.1835 -12.8824,32.4594 -27.6243,60.4227 l -6.095,11.5614 2.4714,5.223 c 2.5611,5.4124 12.9256,19.5729 29.5285,40.3433 12.9214,16.1647 14.0381,18.5459 13.3292,28.4217 -0.503,7.0077 -1.4526,9.2788 -6.828,16.3312 -13.0108,17.0694 -61.7528,64.8209 -76.1145,74.5678 -9.7408,6.6107 -11.5248,5.9866 -42.652,-14.922 -15.4071,-10.3491 -30.7955,-20.8649 -34.1965,-23.3684 -3.4011,-2.5034 -7.7267,-4.5518 -9.6127,-4.5518 -1.886,0 -9.7637,3.9006 -17.5061,8.668 -16.9216,10.4194 -39.6264,21.3387 -61.5591,29.6052 -8.8888,3.3503 -16.8658,6.7845 -17.7264,7.6317 -0.8607,0.847 -3.918,15.4741 -6.7939,32.5045 -6.0565,35.8638 -7.5472,40.8422 -14.3244,47.84 -8.4726,8.7482 -11.2098,9.3456 -60.6186,13.229 -48.3806,3.8025 -52.3527,3.9517 -58.1576,2.1844 z m -606.40502,-19.9242 c -11.50263,-2.0536 -22.20757,-6.6839 -31.72092,-13.7205 -4.8504,-3.5876 -61.65474,-59.7914 -126.23184,-124.8975 -126.1697,-127.2028 -122.01253,-122.5446 -127.07438,-142.3944 -4.39247,-17.225 -1.48496,-35.2937 8.53114,-53.0167 2.37853,-4.2087 69.89566,-73.1036 190.29593,-194.1789 244.79591,-246.16854 238.19037,-239.63986 247.02633,-244.15215 18.6185,-9.50799 37.91603,-10.28599 56.95996,-2.29641 l 10.81125,4.5357 67.09979,67.88746 c 36.90489,37.3381 67.28479,68.4283 67.51089,69.0892 0.2261,0.6609 -3.06654,5.8603 -7.317,11.5542 -8.01681,10.7394 -24.3066,42.1807 -31.61258,61.0162 -10.76204,27.7455 -17.9921,66.0921 -19.33632,102.5556 -1.84101,49.9388 7.4528,96.8819 28.68968,144.9118 l 6.49951,14.6995 -71.58314,71.6021 c -39.37072,39.3812 -103.20363,103.2346 -141.85089,141.8965 -38.64727,38.6619 -73.16605,72.2789 -76.70839,74.7044 -12.73764,8.7216 -33.9916,13.0601 -49.98902,10.2039 z m 863.63552,-690.7916 c -24.2544,-21.75503 -33.7373,-29.05606 -52.0658,-40.08645 -44.2977,-26.65901 -83.2952,-40.37918 -134.6758,-47.38188 -23.4445,-3.19528 -63.6395,-2.20422 -87.7588,2.1638 -33.2232,6.01678 -69.2147,17.91026 -94.9105,31.36341 -16.5406,8.65989 -39.1628,23.1344 -49.6619,31.77558 -5.2703,4.33774 -10.1479,7.68884 -10.8389,7.44704 -0.691,-0.2419 -41.0415,-40.44622 -89.66771,-89.34298 -93.57318,-94.09388 -93.78888,-94.33923 -99.17483,-112.81822 -2.83439,-9.72469 -2.87346,-25.3844 -0.0902,-36.15305 4.86261,-18.81379 6.92262,-21.28661 70.8397,-85.03504 32.8024,-32.71583 105.08304,-105.05181 160.62384,-160.74662 134.2117,-134.58398 138.8548,-139.08234 148.4507,-143.82047 20.3267,-10.03655 39.9821,-10.1329 60.6207,-0.29713 8.4802,4.04139 22.6813,17.95783 198.1551,194.18187 104.4921,104.93881 191.046,192.97574 193.5499,196.86631 7.7135,11.98476 9.5248,19.37171 9.4275,38.44779 -0.097,19.02269 -2.3899,27.71441 -10.5486,39.98565 -5.6593,8.51232 -160.4748,163.44619 -186.2753,186.41799 l -5.792,5.157 z"
       id="path2" />
  </g>
</svg>
